<?xml version="1.0" standalone="no"?>
<!DOCTYPE svg PUBLIC "-//W3C//DTD SVG 20010904//EN"
 "http://www.w3.org/TR/2001/REC-SVG-20010904/DTD/svg10.dtd">
<svg version="1.0" xmlns="http://www.w3.org/2000/svg"
 width="700.000000pt" height="700.000000pt" viewBox="0 0 700.000000 700.000000"
 preserveAspectRatio="xMidYMid meet">
<metadata>
Created by potrace 1.11, written by Peter Selinger 2001-2013
</metadata>
<g transform="translate(0.000000,700.000000) scale(0.100000,-0.100000)"
fill="#000000" stroke="none">
<path d="M105 6984 c-46 -24 -81 -61 -94 -102 -9 -28 -11 -427 -9 -1654 l3
-1616 30 -38 c56 -68 78 -74 271 -74 159 0 174 2 215 23 31 17 50 37 67 70
l24 46 2 1313 c1 1440 -4 1330 61 1391 16 15 43 31 60 36 16 5 616 9 1332 10
1422 0 1329 -3 1383 58 46 52 48 63 50 241 1 151 -2 176 -19 209 -25 50 -60
81 -102 93 -21 6 -625 10 -1639 10 -1433 0 -1608 -2 -1635 -16z"/>
<path d="M4968 6600 c-20 -11 -45 -32 -56 -47 -32 -45 -312 -533 -312 -544 0
-5 -4 -9 -10 -9 -5 0 -10 -4 -10 -9 0 -4 -79 -145 -176 -312 -97 -167 -185
-320 -196 -339 -11 -19 -28 -51 -40 -70 -11 -19 -90 -156 -175 -305 -86 -148
-164 -282 -174 -297 -11 -15 -19 -29 -19 -32 0 -2 -54 -97 -120 -211 -66 -114
-120 -208 -120 -211 0 -2 -15 -27 -33 -56 -19 -29 -47 -78 -64 -108 -16 -30
-42 -74 -56 -97 -15 -24 -27 -45 -27 -47 0 -2 -21 -40 -46 -83 -26 -43 -106
-181 -179 -308 -73 -126 -190 -329 -260 -450 -70 -121 -136 -236 -147 -255
-11 -19 -129 -224 -263 -455 -133 -231 -251 -436 -262 -455 -11 -19 -69 -120
-130 -225 -61 -104 -118 -203 -127 -220 -9 -16 -26 -46 -37 -65 -12 -19 -100
-171 -196 -338 -186 -320 -198 -351 -174 -424 17 -50 50 -77 201 -164 157 -90
197 -100 270 -62 43 22 77 65 133 168 26 49 106 187 186 324 44 76 81 140 81
141 0 2 26 47 58 102 32 54 70 118 84 143 14 25 125 218 248 430 122 212 308
534 413 715 104 182 262 454 350 605 87 151 169 293 181 315 13 22 32 56 43
75 148 256 296 512 583 1010 189 327 396 685 460 795 64 110 119 207 123 215
4 8 17 31 28 50 12 19 80 136 151 260 72 124 167 288 212 365 78 134 81 142
81 201 0 82 -25 117 -124 174 -42 24 -105 61 -141 83 -82 49 -155 59 -212 27z"/>
<path d="M6494 3486 c-49 -22 -93 -75 -100 -123 -3 -23 -7 -624 -8 -1336 l-1
-1294 -27 -39 c-15 -22 -42 -48 -60 -59 -32 -20 -57 -20 -1328 -22 -712 -2
-1306 -3 -1320 -3 -41 0 -108 -50 -131 -97 -19 -39 -20 -58 -17 -221 3 -178 3
-179 31 -216 16 -20 40 -44 55 -54 24 -16 128 -17 1662 -17 l1637 0 37 29 c21
16 47 47 57 70 18 40 19 100 18 1651 0 1802 7 1645 -72 1709 l-39 31 -181 3
c-138 1 -189 -1 -213 -12z"/>
</g>
</svg>
