<?xml version="1.0" encoding="utf-8"?>
<!-- Generator: Adobe Illustrator 24.2.3, SVG Export Plug-In . SVG Version: 6.00 Build 0)  -->
<svg version="1.1" id="レイヤー_1" xmlns="http://www.w3.org/2000/svg" xmlns:xlink="http://www.w3.org/1999/xlink" x="0px"
	 y="0px" viewBox="0 0 32 32" style="enable-background:new 0 0 32 32;" xml:space="preserve">
<style type="text/css">
	.st0{fill:#333333;}
</style>
<g id="パス_372">
	<path class="st0" d="M6.8,27.8H1c-0.6,0-1-0.4-1-1V9c0-0.6,0.4-1,1-1h7.4l1.5-4.1c0.1-0.4,0.5-0.7,0.9-0.7h10.2
		c0.4,0,0.8,0.3,0.9,0.7L23.6,8H31c0.6,0,1,0.4,1,1v17.9c0,0.6-0.4,1-1,1h-5.8c-0.6,0-1-0.4-1-1s0.4-1,1-1H30V10h-7.1
		c-0.4,0-0.8-0.3-0.9-0.7l-1.5-4.1h-8.9l-1.5,4.1C9.9,9.7,9.6,10,9.1,10H2v15.9h4.8c0.6,0,1,0.4,1,1S7.4,27.8,6.8,27.8z"/>
</g>
<g id="前面オブジェクトで型抜き_3">
	<path class="st0" d="M16,24.2c-2.9,0-5.2-2.3-5.2-5.2c0-2.9,2.3-5.2,5.2-5.2c0.9,0,1.7,0.2,2.5,0.6c-0.7,0.2-1.1,0.8-1.1,1.5
		c0,0.9,0.7,1.6,1.6,1.6c0.7,0,1.3-0.4,1.5-1.1c0.4,0.8,0.6,1.6,0.6,2.5C21.2,21.9,18.9,24.2,16,24.2z"/>
</g>
<g id="パス_373" transform="translate(12738 -3318)">
	<g>
		<path class="st0" d="M-12722,3330.3c-1.8,0-3.5,0.7-4.8,2s-2,3-2,4.8c0,1.8,0.7,3.5,2,4.8s3,2,4.8,2s3.5-0.7,4.8-2s2-3,2-4.8
			c0-1.8-0.7-3.5-2-4.8S-12720.2,3330.3-12722,3330.3 M-12722,3328.2c4.9,0,8.8,3.9,8.8,8.8s-3.9,8.8-8.8,8.8s-8.8-3.9-8.8-8.8
			S-12726.9,3328.2-12722,3328.2z"/>
	</g>
</g>
<g id="パス_374">
	<path class="st0" d="M27.9,13h-1.2c-0.6,0-1-0.4-1-1s0.4-1,1-1h1.2c0.6,0,1,0.4,1,1S28.5,13,27.9,13z"/>
</g>
</svg>
