<svg xmlns="http://www.w3.org/2000/svg" viewBox="0 0 371.17 80"><title>logo</title><g id="レイヤー_2" data-name="レイヤー 2"><g id="レイヤー_1-2" data-name="レイヤー 1"><g id="QRAR" style="isolation:isolate"><path d="M177,64.56a2,2,0,0,1-2,2h-20a31.23,31.23,0,0,0-4,.31,26.47,26.47,0,0,1-3.64.28A27.1,27.1,0,0,1,120,39.85a26.35,26.35,0,0,1,3.7-13.62,28.21,28.21,0,0,1,10-10,26.79,26.79,0,0,1,27.27,0,28.43,28.43,0,0,1,10,10,26.19,26.19,0,0,1,3.74,13.62,26.77,26.77,0,0,1-2.22,10.8A36,36,0,0,1,167.56,58c-.72.83-.41,1.51.69,1.51H175a2,2,0,0,1,2,2Zm-46.92-14.5a20.06,20.06,0,0,0,7.29,7.4,19.54,19.54,0,0,0,10.1,2.74,19.29,19.29,0,0,0,10-2.7,19.55,19.55,0,0,0,7.18-7.4,20.69,20.69,0,0,0,2.63-10.25,20.36,20.36,0,0,0-9.92-17.54,19.73,19.73,0,0,0-20.13,0,20.39,20.39,0,0,0-9.84,17.57A20.16,20.16,0,0,0,130.06,50.06Z"/><path d="M235.29,66.56a4.06,4.06,0,0,1-3.07-1.69L221.79,48.49c-.59-.93-1.3-1.67-1.57-1.65s-2.18,0-3.28,0H213a2,2,0,0,0-2,2V64.56a2,2,0,0,1-2,2h-3.18a2,2,0,0,1-2-2V15.06a2,2,0,0,1,2-2h10.28c1.1,0,2.9.08,4,.18A31.21,31.21,0,0,1,227.89,15a15.34,15.34,0,0,1,6.73,5.66,16.09,16.09,0,0,1,2.45,9,19.18,19.18,0,0,1-2.19,9.1c-1.45,2.76-5,5.17-5,5.17a2.07,2.07,0,0,0-.6,2.81l11.34,18.15c.59.93.16,1.69-.94,1.69Zm-8.18-29.67a10.48,10.48,0,0,0,2.56-7,10.83,10.83,0,0,0-1.08-4.66,9.11,9.11,0,0,0-3.4-3.81,10.75,10.75,0,0,0-3.9-1.29c-1.09-.12-2.88-.23-4-.23H213a2,2,0,0,0-2,2v16a2,2,0,0,0,2,2h3.77a31.22,31.22,0,0,0,4-.3S225.41,38.91,227.11,36.89Z"/><path d="M296.26,54.36a3.17,3.17,0,0,0-2.73-1.86H277a3.23,3.23,0,0,0-2.75,1.86L270,64.71a3.22,3.22,0,0,1-2.75,1.85h-3.11a1.23,1.23,0,0,1-1.22-1.84l22.05-52c.43-1,1.13-1,1.56,0l22,52a1.23,1.23,0,0,1-1.22,1.84h-4.28a3.2,3.2,0,0,1-2.74-1.86Zm-5.18-8.08a1.28,1.28,0,0,0,1.28-1.86l-6.17-15.81c-.4-1-1.07-1-1.48,0l-6.42,15.83a1.25,1.25,0,0,0,1.25,1.85Z"/><path d="M365.6,66.56a4.06,4.06,0,0,1-3.07-1.69L352.1,48.49c-.59-.93-1.3-1.67-1.57-1.65s-2.18,0-3.28,0h-3.92a2,2,0,0,0-2,2V64.56a2,2,0,0,1-2,2h-3.18a2,2,0,0,1-2-2V15.06a2,2,0,0,1,2-2h10.29c1.1,0,2.89.08,4,.18A31.17,31.17,0,0,1,358.2,15a15.42,15.42,0,0,1,6.74,5.66,16.17,16.17,0,0,1,2.44,9,19.29,19.29,0,0,1-2.18,9.1c-1.46,2.76-5,5.17-5,5.17a2.09,2.09,0,0,0-.6,2.81l11.35,18.15c.58.93.16,1.69-.94,1.69Zm-8.17-29.67a10.52,10.52,0,0,0,2.55-7,11,11,0,0,0-1.07-4.66,9.14,9.14,0,0,0-3.41-3.81,10.73,10.73,0,0,0-3.89-1.29c-1.1-.12-2.89-.23-4-.23h-4.29a2,2,0,0,0-2,2v16a2,2,0,0,0,2,2h3.77a31.22,31.22,0,0,0,4-.3S355.72,38.91,357.43,36.89Z"/></g><path d="M40,2a2,2,0,0,0-2-2H2A2,2,0,0,0,0,2V38a2,2,0,0,0,2,2H5a2,2,0,0,0,2-2V9A2,2,0,0,1,9,7H38a2,2,0,0,0,2-2Z"/><path d="M75,40a2,2,0,0,0-2,2V71a2,2,0,0,1-2,2H42a2,2,0,0,0-2,2v3a2,2,0,0,0,2,2H78a2,2,0,0,0,2-2V42a2,2,0,0,0-2-2Z"/><g id="長方形_96" data-name="長方形 96"><rect y="36.5" width="80" height="7" rx="2" transform="translate(-14.64 54.64) rotate(-60)"/></g></g></g></svg>