<svg xmlns="http://www.w3.org/2000/svg" viewBox="0 0 80 80"><title>logo_simple</title><g id="レイヤー_2" data-name="レイヤー 2"><g id="レイヤー_1-2" data-name="レイヤー 1"><path d="M40,2a2,2,0,0,0-2-2H2A2,2,0,0,0,0,2V38a2,2,0,0,0,2,2H5a2,2,0,0,0,2-2V9A2,2,0,0,1,9,7H38a2,2,0,0,0,2-2Z"/><path d="M75,40a2,2,0,0,0-2,2V71a2,2,0,0,1-2,2H42a2,2,0,0,0-2,2v3a2,2,0,0,0,2,2H78a2,2,0,0,0,2-2V42a2,2,0,0,0-2-2Z"/><g id="長方形_96" data-name="長方形 96"><rect y="36.5" width="80" height="7" rx="2" transform="translate(-14.64 54.64) rotate(-60)"/></g></g></g></svg>