<svg xmlns="http://www.w3.org/2000/svg" viewBox="0 0 32 32"><title>photo</title><g id="レイヤー_2" data-name="レイヤー 2"><g id="レイヤー_1-2" data-name="レイヤー 1"><path d="M31,0H1A1,1,0,0,0,0,1V31a1,1,0,0,0,1,1H31a1,1,0,0,0,1-1V1A1,1,0,0,0,31,0Zm0,30a1,1,0,0,1-1,1H2a1,1,0,0,1-1-1V21.23l6.22-7.38a.34.34,0,0,1,.26-.14h0a.34.34,0,0,1,.26.14l9,10.73a1.44,1.44,0,0,0,1,.52,1.47,1.47,0,0,0,1.07-.39l5.29-4.9a.62.62,0,0,1,.8,0L31,25.3ZM25.56,19.06a1.63,1.63,0,0,0-2.15,0L18.12,24a.43.43,0,0,1-.65,0l-9-10.72a1.35,1.35,0,0,0-1-.5h0a1.33,1.33,0,0,0-1,.49L1,19.68V2A1,1,0,0,1,2,1H31V24Z"/></g></g></svg>