<svg xmlns="http://www.w3.org/2000/svg" viewBox="0 0 32 28"><title>social</title><g id="レイヤー_2" data-name="レイヤー 2"><g id="レイヤー_1-2" data-name="レイヤー 1"><path d="M28.5,21a3.51,3.51,0,0,0-3.2,2.09L7,18a3.44,3.44,0,0,0,0-.45,3.37,3.37,0,0,0-.43-1.64L20,6A3.49,3.49,0,1,0,19,3.5a3.37,3.37,0,0,0,.43,1.64L6,15a3.5,3.5,0,1,0,.71,3.87l18.35,5.14a3.44,3.44,0,0,0-.05.45A3.5,3.5,0,1,0,28.5,21Zm-6-20A2.5,2.5,0,1,1,20,3.5,2.5,2.5,0,0,1,22.5,1ZM3.5,20A2.5,2.5,0,1,1,6,17.5,2.5,2.5,0,0,1,3.5,20Zm25,7A2.5,2.5,0,1,1,31,24.5,2.5,2.5,0,0,1,28.5,27Z"/></g></g></svg>