<svg xmlns="http://www.w3.org/2000/svg" viewBox="0 0 29 32.11"><title>trash</title><g id="レイヤー_2" data-name="レイヤー 2"><g id="レイヤー_1-2" data-name="レイヤー 1"><path d="M28.5,6.22H21.22V3.61A3.61,3.61,0,0,0,17.61,0H11.39A3.61,3.61,0,0,0,7.78,3.61V6.22H.5a.5.5,0,0,0-.5.5.5.5,0,0,0,.5.5H3.11V28.5a3.61,3.61,0,0,0,3.61,3.61H22.28a3.61,3.61,0,0,0,3.61-3.61V7.22H28.5a.5.5,0,0,0,.5-.5A.5.5,0,0,0,28.5,6.22ZM8.78,3.61A2.61,2.61,0,0,1,11.39,1h6.22a2.61,2.61,0,0,1,2.61,2.61V6.22H8.78ZM24.89,28.5a2.61,2.61,0,0,1-2.61,2.61H6.72A2.61,2.61,0,0,1,4.11,28.5V7.22H24.89Z"/><path d="M11.39,12.67a.5.5,0,0,0-.5.5v12a.5.5,0,0,0,1,0v-12A.5.5,0,0,0,11.39,12.67Z"/><path d="M17.61,12.67a.5.5,0,0,0-.5.5v12a.5.5,0,0,0,1,0v-12A.5.5,0,0,0,17.61,12.67Z"/></g></g></svg>