<svg xmlns="http://www.w3.org/2000/svg" viewBox="0 0 32 32"><title>user-circle</title><g id="レイヤー_2" data-name="レイヤー 2"><g id="レイヤー_1-2" data-name="レイヤー 1"><path d="M16,1A15,15,0,1,1,1,16,15,15,0,0,1,16,1m0-1A16,16,0,1,0,32,16,16,16,0,0,0,16,0Z"/><path d="M8,26a.5.5,0,0,1-.17-1l4.78-1.75V21.63a9.57,9.57,0,0,1-3.33-4.24h0A1.37,1.37,0,0,1,8,16l-.16-1.77a1.42,1.42,0,0,1,1-1.4C9.29,8.62,12.36,5.5,16,5.5s6.71,3.12,7.26,7.33a1.37,1.37,0,0,1,.95,1.33L24.05,16a1.36,1.36,0,0,1-1.31,1.37h0c-1.23,3.07-4.12,5.44-6.72,5.44a.5.5,0,0,1-.5-.5.5.5,0,0,1,.5-.5c2.26,0,4.9-2.29,5.9-5.11a.5.5,0,0,1,.47-.33h.37c.17,0,.31-.19.31-.41l.16-1.86a.35.35,0,0,0-.31-.36.59.59,0,0,1-.59-.46C22,9.42,19.24,6.5,16,6.5s-5.95,2.92-6.31,6.8a.5.5,0,0,1-.5.46.38.38,0,0,0-.4.4L9,15.93c0,.27.14.46.31.46h.37a.5.5,0,0,1,.47.33,8.49,8.49,0,0,0,3.29,4.22.5.5,0,0,1,.22.42v2.3a.5.5,0,0,1-.32.47L8.17,26A.47.47,0,0,1,8,26Z"/><path d="M24,26a.47.47,0,0,1-.17,0l-5.12-1.87a.49.49,0,0,1-.29-.64.5.5,0,0,1,.64-.3l5.11,1.87A.5.5,0,0,1,24,26Z"/></g></g></svg>